<svg fill="none" viewBox="0 0 90 75" xmlns="http://www.w3.org/2000/svg" class="DharmLogo"><g filter="url(#a)"><path d="M13.986 70C7.996 70 5 68.306 5 64.918c0-1.59.851-2.8 2.553-3.63 1.361-.691 2.927-1.037 4.697-1.037 2.451 0 7.183 1.452 14.195 4.356 1.974-1.59 3.88-3.561 5.718-5.912 1.838-2.35 3.574-5.117 5.208-8.297a302.365 302.365 0 0 0 3.983-8.194l3.88-8.297C50.68 22.5 56.91 14.167 63.922 8.912 57.998 6.284 51.974 4.97 45.847 4.97c-7.285 0-13.65 1.175-19.096 3.526-6.604 2.835-11.471 7.087-14.603 12.757-1.906 3.457-2.86 7.052-2.86 10.786 0 3.665 1.022 6.707 3.064 9.127 2.179 2.49 5.072 3.734 8.68 3.734 4.425 0 8.442-1.521 12.05-4.564 3.88-3.111 5.82-6.914 5.82-11.408 0-2.351-.918-4.46-2.756-6.327-1.838-1.798-3.983-2.696-6.434-2.696-2.178 0-4.152.726-5.922 2.178-1.77 1.59-2.655 3.457-2.655 5.6 0 1.729.884 2.593 2.654 2.593.613 0 .92.104.92.311 0 .346-.34.519-1.022.519-2.45 0-3.676-1.141-3.676-3.423 0-2.627.987-4.736 2.962-6.326 1.974-1.66 4.186-2.49 6.637-2.49 3.132 0 5.719 1.141 7.761 3.423 2.042 2.143 3.064 4.77 3.064 7.882 0 4.702-2.009 8.609-6.025 11.72-3.608 2.835-7.795 4.252-12.56 4.252-4.63 0-8.545-1.417-11.744-4.252-3.336-2.973-5.004-6.776-5.004-11.409 0-1.175.102-2.385.306-3.63.273-1.244.613-2.489 1.022-3.733 2.587-7.053 7.522-12.239 14.807-15.558 6.059-2.696 13.24-4.044 21.546-4.044 8.033 0 15.658 1.417 22.874 4.252C70.287 4.59 74.814 3 79.24 3c.68 0 1.055.138 1.123.415l-.714.207c-1.907.346-3.438.623-4.596.83-1.089.207-1.804.38-2.144.519a15.81 15.81 0 0 0-3.268 1.244 20.08 20.08 0 0 0-2.961 1.97C80.226 13.995 87 22.672 87 34.219c0 1.107-.068 2.213-.204 3.32a29.583 29.583 0 0 1-.613 3.214c-2.247 9.68-7.386 16.975-15.42 21.884-7.08 4.287-15.862 6.43-26.346 6.43-6.467 0-11.913-.864-16.339-2.592C23.721 68.824 19.024 70 13.986 70Zm28.797-1.763c10.552 0 19.47-2.87 26.755-8.608 7.897-6.154 11.846-14.486 11.846-24.996h.102c0-11.34-5.447-19.706-16.34-25.099-4.628 4.425-8.951 12.204-12.968 23.336-5.855 16.318-13.48 27.277-22.874 32.878 4.425 1.66 8.918 2.489 13.48 2.489Zm-28.49.933c3.88 0 7.556-1.244 11.028-3.734-5.786-2.281-10.075-3.422-12.867-3.422-3.744 0-5.616 1.244-5.616 3.734 0 2.281 2.485 3.422 7.455 3.422Z" stroke="#fff" class="sc-gKXOVf FkCRH"></path></g><defs><filter id="a" x="0" y="0" width="90" height="75" filterUnits="userSpaceOnUse" color-interpolation-filters="sRGB"><feFlood flood-opacity="0" result="BackgroundImageFix"></feFlood><feColorMatrix in="SourceAlpha" values="0 0 0 0 0 0 0 0 0 0 0 0 0 0 0 0 0 0 127 0" result="hardAlpha"></feColorMatrix><feOffset dx="-1" dy="1"></feOffset><feGaussianBlur stdDeviation="2"></feGaussianBlur><feComposite in2="hardAlpha" operator="out"></feComposite><feColorMatrix values="0 0 0 0 0.0941176 0 0 0 0 0.133333 0 0 0 0 0.14902 0 0 0 1 0"></feColorMatrix><feBlend in2="BackgroundImageFix" result="effect1_dropShadow_33_3"></feBlend><feBlend in="SourceGraphic" in2="effect1_dropShadow_33_3" result="shape"></feBlend></filter></defs></svg>