<svg width="75" height="56" viewBox="0 0 75 56" fill="none" xmlns="http://www.w3.org/2000/svg">
<mask id="path-1-outside-1_4_27" maskUnits="userSpaceOnUse" x="0" y="0" width="75" height="56" fill="black">
<rect fill="white" width="75" height="56"/>
<path d="M15.8884 55C15.4372 55 15.2116 54.5135 15.2116 53.5405C15.2116 52.8919 15.3405 52.0811 15.5983 51.1081C15.9206 50.2 16.3073 49.1297 16.7584 47.8973C17.2741 47.4432 17.5319 46.8595 17.5319 46.1459C17.6608 46.2108 17.7252 46.2108 17.7252 46.1459C17.7897 46.0162 17.8219 45.9514 17.8219 45.9514C17.9508 45.7568 18.0153 45.5622 18.0153 45.3676C18.0153 45.1081 18.0475 44.8811 18.1119 44.6865V44.4919C17.8541 43.8432 17.7252 43.2919 17.7252 42.8378L17.5319 42.7405C17.403 42.3513 17.3063 41.9297 17.2418 41.4757C17.2418 41.0216 17.2741 40.6 17.3385 40.2108C17.403 39.8216 17.3707 39.627 17.2418 39.627C17.1774 39.5622 17.1452 39.4649 17.1452 39.3351C17.1452 39.2054 17.1452 39.1081 17.1452 39.0432C17.2096 38.9135 17.2741 38.7189 17.3385 38.4595C17.403 38.3297 17.4996 38.1027 17.6285 37.7784C17.8219 37.3892 17.9186 37.1622 17.9186 37.0973C17.9186 36.9676 17.8864 36.8703 17.8219 36.8054C17.7575 36.6757 17.7252 36.5784 17.7252 36.5135L18.0153 36.1243V35.4432C18.0797 35.3135 18.1119 35.1514 18.1119 34.9568C18.1764 34.827 18.2731 34.7297 18.402 34.6649C18.5309 34.5351 18.6275 34.4378 18.692 34.373C18.8209 34.2432 18.9176 34.0811 18.982 33.8865C19.1109 33.627 19.2076 33.4324 19.2721 33.3027C19.3365 33.173 19.401 33.0757 19.4654 33.0108C19.5943 32.8811 19.691 32.7189 19.7555 32.5243C19.8844 32.3297 19.981 32.1676 20.0455 32.0378C20.1099 31.8432 20.2066 31.6486 20.3355 31.4541L21.0123 30.8703C21.2701 30.6108 21.5279 30.4811 21.7857 30.4811C22.0435 30.4811 22.2046 30.7405 22.2691 31.2595L22.1724 31.7459L20.6256 33.4C20.4966 33.5297 20.4322 33.6919 20.4322 33.8865C20.3677 33.9514 20.3033 34.0162 20.2388 34.0811C20.2388 34.1459 20.2066 34.2432 20.1422 34.373C20.1422 34.5027 20.0455 34.6649 19.8521 34.8595L19.5621 35.7351C19.4332 35.7351 19.3687 35.8 19.3687 35.9297C19.3043 35.9946 19.2398 36.3838 19.1754 37.0973C19.1754 37.7459 19.1754 38.1351 19.1754 38.2649H19.4654C19.4654 38.3297 19.4654 38.427 19.4654 38.5568C19.5299 38.6216 19.5299 38.7189 19.4654 38.8486V39.4324C19.4654 39.5622 19.4332 39.6919 19.3687 39.8216C19.3687 39.8216 19.3365 39.8541 19.2721 39.9189C19.2721 39.9189 19.2721 39.9514 19.2721 40.0162C19.2721 40.0811 19.3043 40.1784 19.3687 40.3081C19.4332 40.373 19.4654 40.4703 19.4654 40.6C19.4654 40.6649 19.4332 40.7297 19.3687 40.7946C19.3687 40.7946 19.3687 40.827 19.3687 40.8919C19.3687 40.9568 19.401 41.0216 19.4654 41.0865C19.5299 41.0865 19.5621 41.1189 19.5621 41.1838V41.2811C20.0777 40.3081 20.5611 39.3027 21.0123 38.2649C21.5279 37.227 22.0435 36.1892 22.5591 35.1514C22.688 34.8919 22.8169 34.827 22.9458 34.9568C23.1392 35.0216 23.2681 34.9892 23.3325 34.8595C23.397 34.7946 23.4292 34.6324 23.4292 34.373C23.4292 34.1784 23.397 33.9838 23.3325 33.7892C23.3325 33.5946 23.4292 33.3676 23.6226 33.1081L24.976 30.6757C26.8451 27.3027 28.7142 24.0595 30.5833 20.9459C32.5169 17.8324 34.3215 15.4324 35.9973 13.7459L36.2873 13.5514L36.5774 13.0649C36.5774 13.0649 36.6418 13.0324 36.7707 12.9676C36.8996 12.9027 36.9963 12.9351 37.0607 13.0649C37.0607 13.1297 36.9963 13.2595 36.8674 13.4541C36.8029 13.6486 36.7707 13.7784 36.7707 13.8432C36.9641 14.1676 37.1896 14.2 37.4475 13.9405C37.5119 13.8108 37.5119 13.5189 37.4475 13.0649C37.383 12.6108 37.383 12.3838 37.4475 12.3838C37.5764 12.3189 37.6408 12.3189 37.6408 12.3838C37.7053 12.4486 37.7697 12.4811 37.8342 12.4811C37.9631 12.4811 38.0275 12.3838 38.0275 12.1892C38.0275 11.9946 38.0597 11.8649 38.1242 11.8C38.8332 11.5405 39.4777 11.4108 40.0578 11.4108C40.38 11.4108 40.8312 11.573 41.4112 11.8973C42.0558 12.2216 42.378 12.6757 42.378 13.2595C42.378 13.5838 42.2169 13.973 41.8946 14.427C41.8302 14.4919 41.7657 14.6216 41.7013 14.8162C41.6368 14.9459 41.5401 15.0757 41.4112 15.2054C41.3468 15.2703 41.2823 15.3027 41.2179 15.3027C41.2179 15.2378 41.1534 15.2378 41.0245 15.3027C40.9601 15.3676 40.8634 15.4 40.7345 15.4C40.67 15.3351 40.5734 15.3027 40.4445 15.3027C40.3156 15.3027 40.2833 15.4 40.3478 15.5946C40.4767 15.7892 40.5089 15.9189 40.4445 15.9838C40.38 16.0486 40.3156 16.0486 40.2511 15.9838C40.1867 15.9189 40.09 15.9514 39.9611 16.0811C39.8966 16.1459 39.9288 16.2108 40.0578 16.2757C40.2511 16.2757 40.2833 16.3405 40.1544 16.4703C39.7677 16.8595 39.2843 17.2811 38.7043 17.7351C38.1886 18.1243 37.673 18.5135 37.1574 18.9027C37.093 18.9676 37.0285 18.9676 36.9641 18.9027C36.8996 18.773 36.8352 18.7405 36.7707 18.8054L36.094 19.7784C35.4495 20.427 34.8049 21.1081 34.1604 21.8216C33.5159 22.5351 32.8392 23.3459 32.1302 24.2541C31.9368 24.6432 31.7112 25 31.4534 25.3243C31.1956 25.6486 30.8412 25.7784 30.39 25.7135C30.39 25.7784 30.4544 25.8757 30.5833 26.0054C30.7122 26.0703 30.7122 26.2 30.5833 26.3946C29.4877 27.9513 28.392 29.573 27.2963 31.2595C26.2006 32.9459 25.1694 34.6973 24.2026 36.5135C23.7515 37.2919 23.2036 38.2973 22.5591 39.5297L21.689 41.2811C21.6246 41.4757 21.5279 41.573 21.399 41.573C21.3345 41.5081 21.2378 41.4757 21.1089 41.4757C21.3023 41.8649 21.3345 42.2865 21.2056 42.7405C21.2701 42.7405 21.3023 42.773 21.3023 42.8378C22.5269 43.6811 23.397 44.2649 23.9126 44.5892C24.4927 44.9135 25.4594 45.2378 26.8129 45.5622C27.3285 45.6919 27.8441 45.8541 28.3598 46.0486C28.8754 46.1784 29.4232 46.2432 30.0033 46.2432C30.0677 46.2432 30.0677 46.2757 30.0033 46.3405C30.0033 46.4054 30.0355 46.4378 30.1 46.4378C30.3578 46.4378 30.6156 46.4703 30.8734 46.5351C31.1312 46.5351 31.389 46.5351 31.6468 46.5351C31.7113 46.5351 31.7435 46.5351 31.7435 46.5351C31.8079 46.4703 31.8724 46.4378 31.9368 46.4378C32.0657 46.4378 32.2591 46.5027 32.5169 46.6324C32.9681 46.6324 33.4514 46.6324 33.9671 46.6324C34.5471 46.6324 35.0627 46.6 35.5139 46.5351C36.0295 46.4703 36.5129 46.4054 36.9641 46.3405C37.4797 46.2108 37.9631 46.1135 38.4142 46.0486C39.3166 45.9838 40.1867 45.8216 41.0245 45.5622C41.9269 45.2378 42.7969 44.9459 43.6348 44.6865C44.6016 44.3622 45.6328 44.0054 46.7285 43.6162C47.8886 43.1622 49.081 42.6432 50.3056 42.0595C50.4345 41.9946 50.4989 42.1568 50.4989 42.5459C50.5634 42.8703 50.6601 43 50.789 42.9351C50.9179 42.8703 51.079 42.6108 51.2724 42.1568C51.5302 41.7027 51.6913 41.4432 51.7557 41.3784L52.6258 40.2108L53.3993 39.3351C53.5282 39.1405 53.6571 38.8811 53.786 38.5568C53.9149 38.2324 54.0115 37.973 54.076 37.7784C54.2694 37.2595 54.4305 36.7081 54.5594 36.1243C54.6883 35.5405 54.7527 34.9243 54.7527 34.2757C54.7527 33.9514 54.9139 33.7892 55.2361 33.7892C55.5584 33.7892 55.7195 33.9514 55.7195 34.2757C55.7195 34.6 55.7195 34.9568 55.7195 35.3459C55.7195 35.7351 55.6551 36.0919 55.5262 36.4162C55.5262 36.4811 55.4617 36.5135 55.3328 36.5135C55.2684 36.4486 55.2361 36.4486 55.2361 36.5135C55.1717 36.9676 55.1072 37.4541 55.0428 37.973C54.9783 38.427 54.8172 38.8811 54.5594 39.3351L53.9793 40.3081C55.3328 39.5946 56.6218 38.8486 57.8464 38.0703C59.1355 37.227 60.2311 36.2865 61.1335 35.2486L62.0036 34.2757C62.068 34.1459 62.1647 34.0486 62.2936 33.9838C62.4225 33.9189 62.5192 34.0162 62.5836 34.2757C62.3903 34.4703 62.358 34.7297 62.487 35.0541C62.8092 34.9892 63.0026 34.6973 63.067 34.1784C63.1315 33.5946 63.2282 33.0757 63.3571 32.6216C63.9371 31.9081 64.5172 31.1297 65.0972 30.2865C65.1617 30.2216 65.2584 30.1892 65.3873 30.1892C65.6451 30.1892 65.8707 30.2216 66.064 30.2865C66.2574 30.3514 66.4507 30.2541 66.6441 29.9946C66.5152 29.6703 66.3863 29.4432 66.2574 29.3135C66.1285 29.1189 66.1607 28.8595 66.3541 28.5351L66.6441 28.0486C66.9663 27.4649 67.3208 27.0432 67.7075 26.7838C68.0943 26.5243 68.3521 25.973 68.481 25.1297C69.7056 22.9243 70.3178 20.5243 70.3178 17.9297C70.3178 14.9459 69.3833 12.1892 67.5142 9.65946C65.7095 7.06486 62.9381 5.44324 59.1999 4.79459C59.071 4.79459 58.6843 4.6973 58.0398 4.5027C57.4597 4.24324 57.1052 4.11351 56.9763 4.11351C56.8474 4.11351 56.7185 4.11351 56.5896 4.11351C56.4607 4.04865 56.3318 4.01621 56.2029 4.01621C55.9451 4.01621 55.7517 4.04865 55.6228 4.11351C55.4939 4.11351 55.2039 4.04865 54.7527 3.91892C54.1727 3.59459 53.4315 3.4 52.5292 3.33513C51.6913 3.2054 51.2079 3.10811 51.079 3.04324L49.3388 3.43243C49.0165 3.43243 48.6943 3.43243 48.372 3.43243C48.1142 3.36757 47.8564 3.33513 47.5986 3.33513C46.1162 3.33513 44.8916 3.46486 43.9249 3.72432C43.0225 3.91892 42.2169 4.04865 41.5079 4.11351L37.5441 4.5027C37.1574 4.30811 36.8029 4.37297 36.4807 4.6973H36.384C35.9328 4.6973 35.4817 4.76216 35.0305 4.89189C34.6438 4.95675 34.2249 5.05405 33.7737 5.18378C33.5159 5.24865 33.2259 5.28108 32.9036 5.28108C32.6458 5.28108 32.3558 5.34595 32.0335 5.47568V5.57297C31.7757 5.63784 31.4857 5.7027 31.1634 5.76757C30.9056 5.76757 30.6156 5.83243 30.2933 5.96216H30.1966C29.9388 6.09189 29.681 6.22162 29.4232 6.35135C29.2299 6.48108 28.9721 6.51351 28.6498 6.44865C28.392 6.51351 28.102 6.57838 27.7797 6.64324C27.5219 6.70811 27.2319 6.8054 26.9096 6.93513H26.7162C26.5229 6.93513 26.3295 6.74054 26.1362 6.35135C25.9428 5.96216 25.8461 5.7027 25.8461 5.57297C25.7817 5.96216 25.685 6.38378 25.5561 6.83784C25.4917 7.29189 25.2661 7.51892 24.8794 7.51892V7.61621C24.4282 7.68108 24.0093 7.81081 23.6226 8.0054C23.2358 8.2 22.8169 8.36216 22.3657 8.49189C22.1079 8.55676 21.8501 8.58919 21.5923 8.58919C21.3345 8.52432 21.0445 8.49189 20.7222 8.49189C20.5933 8.49189 20.4644 8.52432 20.3355 8.58919C20.2066 8.58919 20.0777 8.62162 19.9488 8.68649C19.7555 8.75135 19.6266 8.88108 19.5621 9.07568C19.5621 9.27027 19.4976 9.43243 19.3687 9.56216C19.1109 9.82162 18.7887 10.0162 18.402 10.1459C18.0153 10.2757 17.693 10.4054 17.4352 10.5351C17.3063 10.6 17.1129 10.5351 16.8551 10.3405C16.6618 10.1459 16.5006 10.1135 16.3717 10.2432C16.3073 10.3081 16.2428 10.4703 16.1784 10.7297C16.1784 10.9892 16.1139 11.1514 15.985 11.2162H15.8884L13.5681 12.2865C13.2458 12.4162 12.8591 12.6108 12.408 12.8703C11.9568 13.1297 11.5701 13.2919 11.2478 13.3568C11.1834 13.3568 11.1511 13.227 11.1511 12.9676C11.1511 12.7081 11.0867 12.6432 10.9578 12.773C10.6355 12.9027 10.281 13.2595 9.89434 13.8432C9.57208 14.3622 9.24982 14.7189 8.92756 14.9135C8.6053 15.173 8.28305 15.3027 7.96079 15.3027C7.63853 15.3027 7.3485 15.4324 7.09069 15.6919C6.89733 15.8216 6.70398 16.1135 6.51062 16.5676C6.38172 16.9568 6.22059 17.2486 6.02724 17.4432L4.67375 19.2919C4.54485 19.4216 4.41594 19.5514 4.28704 19.6811C4.15814 19.8108 4.09368 19.973 4.09368 20.1676C3.70697 20.8162 3.51362 21.5622 3.51362 22.4054C3.51362 23.8324 3.99701 24.8703 4.96378 25.5189C5.99501 26.1027 7.12291 26.5568 8.3475 26.8811H8.44418C8.89534 27.2054 9.31427 27.3351 9.70098 27.2703C9.95879 27.1405 10.1844 27.0757 10.3777 27.0757C10.6355 27.0757 10.8611 27.2054 11.0545 27.4649L12.408 27.7568C13.1169 27.9513 13.4714 28.1459 13.4714 28.3405C13.4714 28.4703 13.3103 28.6 12.988 28.7297C12.7302 28.7946 12.4402 28.827 12.1179 28.827C11.0222 28.827 9.66876 28.6 8.05746 28.1459C6.51062 27.6919 5.12491 26.9784 3.90033 26.0054C2.67574 24.9676 1.96678 23.7027 1.77342 22.2108C1.77342 22.1459 1.67674 21.9838 1.48339 21.7243C1.35448 21.4649 1.25781 21.2378 1.19336 21.0432C1.1289 20.7189 1.06445 20.427 1 20.1676C1 19.8432 1 19.5514 1 19.2919C1 17.2162 1.80565 15.3027 3.41694 13.5514C3.7392 13.227 4.02923 13 4.28704 12.8703C4.54485 12.7405 4.8671 12.5459 5.25381 12.2865C5.57607 12.027 5.7372 11.8324 5.7372 11.7027C5.7372 11.5081 5.93056 11.2811 6.31727 11.0216C6.83288 10.6324 7.50962 10.2432 8.3475 9.85405C9.18537 9.4 9.86211 9.04324 10.3777 8.78378V8.68649H10.5711C10.8289 8.68649 11.0867 8.55676 11.3445 8.2973C12.5046 7.71351 13.7292 7.19459 15.0183 6.74054C16.3717 6.22162 17.7252 5.73513 19.0787 5.28108C19.4654 5.08648 19.8199 4.98919 20.1422 4.98919C20.4644 4.98919 20.7222 5.08648 20.9156 5.28108C20.9156 5.15135 20.9156 5.05405 20.9156 4.98919C20.9156 4.85946 20.9478 4.76216 21.0123 4.6973V4.6C22.4947 4.14595 23.977 3.69189 25.4594 3.23784C26.9418 2.71892 28.392 2.45946 29.8099 2.45946H29.9066C30.2933 2.45946 30.5833 2.39459 30.7767 2.26486L31.3568 2.16757H31.4534C31.8402 2.2973 32.1946 2.23243 32.5169 1.97297C34.1282 1.64865 35.675 1.45405 37.1574 1.38919C38.6398 1.32432 39.8966 1.25946 40.9278 1.19459C41.1212 1.25946 41.3146 1.29189 41.5079 1.29189C41.7013 1.22703 41.8624 1.19459 41.9913 1.19459L42.9581 1.0973C43.1514 1.0973 43.3448 1.12973 43.5381 1.19459C43.7959 1.19459 44.0215 1.16216 44.2149 1.0973L49.6288 1H49.7255C49.9189 1 50.08 1.0973 50.2089 1.29189C50.4023 1.42162 50.5956 1.35676 50.789 1.0973C51.3046 1.0973 52.078 1.19459 53.1092 1.38919C54.2049 1.58378 55.3006 1.77838 56.3963 1.97297C57.4919 2.1027 58.2976 2.23243 58.8132 2.36216C59.78 2.55676 61.1335 3.01081 62.8737 3.72432C64.6783 4.37297 66.483 5.37838 68.2876 6.74054C70.0923 8.03784 71.5424 9.78919 72.6381 11.9946C73.7982 14.1351 74.2172 16.827 73.8949 20.0703C73.8305 21.2378 73.5727 22.3405 73.1215 23.3784C72.6703 24.4162 72.1869 25.4865 71.6713 26.5892L70.7046 28.7297C70.6401 28.7946 70.5434 28.8919 70.4145 29.0216C70.2856 29.0865 70.1567 29.1838 70.0278 29.3135C69.9634 29.5081 69.8667 29.6703 69.7378 29.8C69.6089 29.8649 69.48 29.9946 69.3511 30.1892C69.0933 30.5784 68.8032 30.9676 68.481 31.3568C68.1587 31.6811 67.8365 32.0703 67.5142 32.5243L67.3208 32.8162C66.4185 34.2432 65.2906 35.5405 63.9371 36.7081C62.5836 37.8108 61.2301 38.8162 59.8767 39.7243V39.8216C59.7478 39.8865 59.5866 39.9838 59.3933 40.1135C59.2644 40.1784 59.1355 40.2757 59.0066 40.4054L58.9099 40.5027H58.8132C58.6843 40.5676 58.5232 40.6324 58.3298 40.6973C58.1365 40.7622 57.9753 40.9243 57.8464 41.1838C57.5886 41.3784 57.3308 41.4757 57.073 41.4757C56.2351 41.9297 55.4617 42.3189 54.7527 42.6432C54.0438 42.9027 53.4315 43.1622 52.9159 43.4216C52.9159 43.5514 52.8192 43.7459 52.6258 44.0054C52.4325 44.2649 52.2714 44.4595 52.1425 44.5892C51.0468 45.4973 50.3056 46.2432 49.9189 46.827C49.5322 47.4108 49.0488 47.8649 48.4687 48.1892C48.4043 48.2541 48.3076 48.2865 48.1787 48.2865C47.9209 48.2865 47.7275 48.3838 47.5986 48.5784C47.4697 48.773 47.3408 48.9676 47.2119 49.1622C46.8896 49.4865 46.2451 49.8108 45.2783 50.1351C44.376 50.4595 43.6993 50.7838 43.2481 51.1081C43.0548 51.173 42.8292 51.2378 42.5714 51.3027C42.378 51.4324 42.2813 51.4973 42.2813 51.4973H41.7979C41.7335 51.4973 41.6046 51.5622 41.4112 51.6919C41.2179 51.8865 41.0568 52.0162 40.9278 52.0811C40.7989 52.1459 40.67 52.1784 40.5411 52.1784C40.4122 52.1784 40.3156 52.2432 40.2511 52.373C39.9288 52.373 39.5744 52.4378 39.1877 52.5676C39.1232 52.5676 38.8009 52.5676 38.2209 52.5676C37.6408 52.6324 37.2863 52.6973 37.1574 52.7622C37.093 52.827 36.8674 52.9243 36.4807 53.0541C36.094 53.1838 35.8362 53.2486 35.7073 53.2486C35.6428 53.2486 35.5784 53.2162 35.5139 53.1514C35.4495 53.1514 35.3528 53.1838 35.2239 53.2486C35.1594 53.3784 35.0627 53.4432 34.9338 53.4432C34.8694 53.4432 34.7405 53.4108 34.5471 53.3459C34.4182 53.3459 34.2893 53.3459 34.1604 53.3459C34.096 53.2811 33.9671 53.3135 33.7737 53.4432C33.6448 53.573 33.5159 53.6378 33.387 53.6378C33.3225 53.6378 33.2581 53.6054 33.1936 53.5405C33.1936 53.5405 33.1614 53.5405 33.097 53.5405C32.9681 53.5405 32.8392 53.573 32.7103 53.6378C32.5814 53.7027 32.4524 53.7351 32.3235 53.7351C31.8724 53.7351 31.4534 53.7027 31.0667 53.6378C30.68 53.573 30.2933 53.5405 29.9066 53.5405C29.8422 53.5405 29.6488 53.4432 29.3265 53.2486C29.0687 53.0541 28.9076 52.9568 28.8431 52.9568C28.392 52.9568 27.9408 52.9243 27.4897 52.8595C27.103 52.8595 26.7162 52.827 26.3295 52.7622C26.2651 52.7622 26.2006 52.6973 26.1362 52.5676C26.1362 52.5027 26.0717 52.4703 25.9428 52.4703H25.7495C25.685 52.4703 25.5239 52.4054 25.2661 52.2757C25.0727 52.1459 24.9438 52.0486 24.8794 51.9838L24.7827 51.8865C24.5249 51.8216 24.3638 51.7243 24.2993 51.5946C24.2993 51.4649 24.2349 51.4 24.1059 51.4C24.0415 51.4 24.0093 51.4 24.0093 51.4C24.0093 51.4649 23.977 51.4973 23.9126 51.4973C23.7837 51.4973 23.7192 51.4324 23.7192 51.3027C23.5259 51.173 23.2036 51.0108 22.7525 50.8162C22.3657 50.6216 22.1079 50.3946 21.979 50.1351C21.7212 50.0703 21.5601 50.0054 21.4956 49.9405C21.4956 49.8757 21.4312 49.7459 21.3023 49.5513L20.9156 49.3568L19.9488 48.4811C19.9488 48.2865 19.9166 48.1892 19.8521 48.1892L19.5621 47.9946C19.5621 47.7351 19.4654 47.6054 19.2721 47.6054C19.1432 47.2162 19.0787 47.0216 19.0787 47.0216C18.4986 48.3189 17.983 49.5838 17.5319 50.8162C17.1452 52.0486 16.7907 53.1838 16.4684 54.2216C16.3395 54.7405 16.1462 55 15.8884 55ZM32.8069 52.0811C32.9358 52.0811 33.0325 52.0486 33.097 51.9838C33.2259 51.9189 33.3225 51.8541 33.387 51.7892H33.7737C34.2249 51.5297 34.4505 51.5297 34.4505 51.7892C34.4505 52.0486 34.6116 52.0486 34.9338 51.7892H35.4172C35.4817 51.5946 35.5784 51.4973 35.7073 51.4973C35.9006 51.4973 36.0295 51.4649 36.094 51.4C36.2229 51.4 36.2873 51.3351 36.2873 51.2054C36.3518 51.1405 36.4807 51.1081 36.674 51.1081C36.7385 51.1081 36.8352 51.173 36.9641 51.3027C37.2219 51.3027 37.7375 51.173 38.5109 50.9135C39.3488 50.6541 39.7999 50.5243 39.8644 50.5243C39.9288 50.5892 40.0255 50.5243 40.1544 50.3297C40.3478 50.1351 40.4767 50.0703 40.5411 50.1351C40.5411 50.0703 40.6378 50.0054 40.8312 49.9405C41.0245 49.9405 41.1534 49.9081 41.2179 49.8432C41.6046 49.6486 41.9269 49.5513 42.1847 49.5513C42.2491 49.4865 42.4102 49.3568 42.668 49.1622C42.9903 49.0324 43.1514 48.9351 43.1514 48.8703C43.2803 48.7405 43.4737 48.6432 43.7315 48.5784C43.9893 48.5135 44.1504 48.4486 44.2149 48.3838C44.4082 48.3838 45.0528 48.0595 46.1484 47.4108C47.3086 46.6973 48.372 45.8541 49.3388 44.8811C48.2431 45.2703 47.1797 45.5946 46.1484 45.8541C45.1817 46.0486 44.666 46.1459 44.6016 46.1459C44.4727 46.2757 44.376 46.3405 44.3116 46.3405C44.0538 46.2108 43.9249 46.1459 43.9249 46.1459L43.8282 46.2432C43.7637 46.2432 43.6993 46.2757 43.6348 46.3405C43.5704 46.4054 43.4415 46.4378 43.2481 46.4378C43.1837 46.373 42.9903 46.4378 42.668 46.6324C42.4102 46.7622 42.2491 46.827 42.1847 46.827C42.1202 46.827 42.0235 46.8595 41.8946 46.9243C41.8302 46.9243 41.7335 46.8919 41.6046 46.827C41.3468 47.0865 40.67 47.2811 39.5744 47.4108C38.5431 47.4757 37.8664 47.5081 37.5441 47.5081H37.4475C37.383 47.4432 37.2863 47.4432 37.1574 47.5081C37.093 47.5081 36.9963 47.5081 36.8674 47.5081C36.8674 47.573 36.8352 47.6378 36.7707 47.7027H36.1906C35.9328 47.7027 35.675 47.7351 35.4172 47.8C35.2239 47.8649 34.9983 47.8973 34.7405 47.8973L34.6438 47.8C34.5794 47.8 34.4827 47.8324 34.3538 47.8973C34.2249 47.9622 34.1282 47.9946 34.0637 47.9946C33.9993 47.9946 33.9348 47.9622 33.8704 47.8973C33.8704 47.7676 33.8059 47.7027 33.677 47.7027C33.6126 47.7027 33.5159 47.7676 33.387 47.8973C33.3225 47.9622 33.2581 47.9622 33.1936 47.8973H32.8069C32.6136 47.8973 32.5169 47.8973 32.5169 47.8973C32.4524 47.8973 32.388 47.9297 32.3235 47.9946C32.3235 47.9946 32.2913 47.9946 32.2269 47.9946C32.2269 47.9946 32.1624 47.9297 32.0335 47.8C31.9691 47.8 31.8402 47.8649 31.6468 47.9946C31.5179 48.0595 31.389 48.0595 31.2601 47.9946H31.0667C30.9378 47.8649 30.8734 47.8 30.8734 47.8C30.8089 47.8 30.7767 47.8324 30.7767 47.8973H29.9066C29.5199 47.8973 29.1332 47.7676 28.7465 47.5081C28.3598 47.2486 28.0053 47.1189 27.683 47.1189C27.6186 47.1189 27.5541 47.1513 27.4897 47.2162C27.4897 47.2162 27.4574 47.2162 27.393 47.2162C27.3285 47.2162 27.2641 47.2162 27.1996 47.2162C27.1996 47.1513 27.1674 47.1189 27.103 47.1189C27.103 47.1189 27.0707 47.1189 27.0063 47.1189C27.0063 47.1189 26.974 47.1513 26.9096 47.2162C26.9096 47.1513 26.8774 47.1189 26.8129 47.1189C26.8129 47.0541 26.8129 47.0216 26.8129 47.0216L25.9428 46.827C25.9428 46.6324 25.8784 46.5351 25.7495 46.5351C25.685 46.3405 25.2661 46.1459 24.4927 45.9514C23.7192 45.7568 23.2681 45.627 23.1392 45.5622C23.0747 45.5622 22.9458 45.4973 22.7525 45.3676C22.6236 45.2378 22.5591 45.2054 22.5591 45.2703H22.4624C22.2691 45.2703 22.0113 45.1405 21.689 44.8811C21.4312 44.5568 21.1734 44.3622 20.9156 44.2973C20.7222 44.1027 20.6256 43.9081 20.6256 43.7135H20.5289L20.4322 43.8108L20.2388 44.3946C20.2388 44.4595 20.2711 44.5892 20.3355 44.7838C20.4 44.9784 20.4 45.1405 20.3355 45.2703C20.4644 45.4 20.5289 45.5622 20.5289 45.7568C20.5289 45.8865 20.5933 45.9838 20.7222 46.0486C20.7867 46.2432 20.8511 46.4378 20.9156 46.6324C21.0445 46.827 21.1412 47.0216 21.2056 47.2162C21.2056 47.2811 21.3667 47.4108 21.689 47.6054C22.0113 47.7351 22.1724 47.8649 22.1724 47.9946C22.2368 48.0595 22.3013 48.1243 22.3657 48.1892C22.4947 48.2541 22.5591 48.3514 22.5591 48.4811C22.6236 48.5459 22.688 48.6432 22.7525 48.773C22.8169 48.9027 22.8491 49.0324 22.8491 49.1622C22.978 49.1622 23.0747 49.1946 23.1392 49.2595C23.2036 49.3892 23.3648 49.5838 23.6226 49.8432C23.8804 50.1676 24.0737 50.3622 24.2026 50.427C24.2671 50.427 24.2993 50.3946 24.2993 50.3297C24.2993 50.3297 24.3315 50.3297 24.396 50.3297C24.5249 50.3946 24.686 50.5243 24.8794 50.7189C25.0727 50.9784 25.2016 51.1081 25.2661 51.1081C25.395 51.1081 25.4594 51.1081 25.4594 51.1081C25.975 51.173 26.4907 51.2378 27.0063 51.3027C27.5219 51.4324 28.0375 51.5297 28.5531 51.5946C28.6176 51.5946 28.7142 51.627 28.8431 51.6919C28.9721 51.8216 29.1332 51.8865 29.3265 51.8865C29.8422 51.9514 30.4544 51.9838 31.1634 51.9838C31.9368 51.9838 32.4524 51.9838 32.7103 51.9838L32.8069 52.0811Z"/>
</mask>
<path d="M15.8884 55C15.4372 55 15.2116 54.5135 15.2116 53.5405C15.2116 52.8919 15.3405 52.0811 15.5983 51.1081C15.9206 50.2 16.3073 49.1297 16.7584 47.8973C17.2741 47.4432 17.5319 46.8595 17.5319 46.1459C17.6608 46.2108 17.7252 46.2108 17.7252 46.1459C17.7897 46.0162 17.8219 45.9514 17.8219 45.9514C17.9508 45.7568 18.0153 45.5622 18.0153 45.3676C18.0153 45.1081 18.0475 44.8811 18.1119 44.6865V44.4919C17.8541 43.8432 17.7252 43.2919 17.7252 42.8378L17.5319 42.7405C17.403 42.3513 17.3063 41.9297 17.2418 41.4757C17.2418 41.0216 17.2741 40.6 17.3385 40.2108C17.403 39.8216 17.3707 39.627 17.2418 39.627C17.1774 39.5622 17.1452 39.4649 17.1452 39.3351C17.1452 39.2054 17.1452 39.1081 17.1452 39.0432C17.2096 38.9135 17.2741 38.7189 17.3385 38.4595C17.403 38.3297 17.4996 38.1027 17.6285 37.7784C17.8219 37.3892 17.9186 37.1622 17.9186 37.0973C17.9186 36.9676 17.8864 36.8703 17.8219 36.8054C17.7575 36.6757 17.7252 36.5784 17.7252 36.5135L18.0153 36.1243V35.4432C18.0797 35.3135 18.1119 35.1514 18.1119 34.9568C18.1764 34.827 18.2731 34.7297 18.402 34.6649C18.5309 34.5351 18.6275 34.4378 18.692 34.373C18.8209 34.2432 18.9176 34.0811 18.982 33.8865C19.1109 33.627 19.2076 33.4324 19.2721 33.3027C19.3365 33.173 19.401 33.0757 19.4654 33.0108C19.5943 32.8811 19.691 32.7189 19.7555 32.5243C19.8844 32.3297 19.981 32.1676 20.0455 32.0378C20.1099 31.8432 20.2066 31.6486 20.3355 31.4541L21.0123 30.8703C21.2701 30.6108 21.5279 30.4811 21.7857 30.4811C22.0435 30.4811 22.2046 30.7405 22.2691 31.2595L22.1724 31.7459L20.6256 33.4C20.4966 33.5297 20.4322 33.6919 20.4322 33.8865C20.3677 33.9514 20.3033 34.0162 20.2388 34.0811C20.2388 34.1459 20.2066 34.2432 20.1422 34.373C20.1422 34.5027 20.0455 34.6649 19.8521 34.8595L19.5621 35.7351C19.4332 35.7351 19.3687 35.8 19.3687 35.9297C19.3043 35.9946 19.2398 36.3838 19.1754 37.0973C19.1754 37.7459 19.1754 38.1351 19.1754 38.2649H19.4654C19.4654 38.3297 19.4654 38.427 19.4654 38.5568C19.5299 38.6216 19.5299 38.7189 19.4654 38.8486V39.4324C19.4654 39.5622 19.4332 39.6919 19.3687 39.8216C19.3687 39.8216 19.3365 39.8541 19.2721 39.9189C19.2721 39.9189 19.2721 39.9514 19.2721 40.0162C19.2721 40.0811 19.3043 40.1784 19.3687 40.3081C19.4332 40.373 19.4654 40.4703 19.4654 40.6C19.4654 40.6649 19.4332 40.7297 19.3687 40.7946C19.3687 40.7946 19.3687 40.827 19.3687 40.8919C19.3687 40.9568 19.401 41.0216 19.4654 41.0865C19.5299 41.0865 19.5621 41.1189 19.5621 41.1838V41.2811C20.0777 40.3081 20.5611 39.3027 21.0123 38.2649C21.5279 37.227 22.0435 36.1892 22.5591 35.1514C22.688 34.8919 22.8169 34.827 22.9458 34.9568C23.1392 35.0216 23.2681 34.9892 23.3325 34.8595C23.397 34.7946 23.4292 34.6324 23.4292 34.373C23.4292 34.1784 23.397 33.9838 23.3325 33.7892C23.3325 33.5946 23.4292 33.3676 23.6226 33.1081L24.976 30.6757C26.8451 27.3027 28.7142 24.0595 30.5833 20.9459C32.5169 17.8324 34.3215 15.4324 35.9973 13.7459L36.2873 13.5514L36.5774 13.0649C36.5774 13.0649 36.6418 13.0324 36.7707 12.9676C36.8996 12.9027 36.9963 12.9351 37.0607 13.0649C37.0607 13.1297 36.9963 13.2595 36.8674 13.4541C36.8029 13.6486 36.7707 13.7784 36.7707 13.8432C36.9641 14.1676 37.1896 14.2 37.4475 13.9405C37.5119 13.8108 37.5119 13.5189 37.4475 13.0649C37.383 12.6108 37.383 12.3838 37.4475 12.3838C37.5764 12.3189 37.6408 12.3189 37.6408 12.3838C37.7053 12.4486 37.7697 12.4811 37.8342 12.4811C37.9631 12.4811 38.0275 12.3838 38.0275 12.1892C38.0275 11.9946 38.0597 11.8649 38.1242 11.8C38.8332 11.5405 39.4777 11.4108 40.0578 11.4108C40.38 11.4108 40.8312 11.573 41.4112 11.8973C42.0558 12.2216 42.378 12.6757 42.378 13.2595C42.378 13.5838 42.2169 13.973 41.8946 14.427C41.8302 14.4919 41.7657 14.6216 41.7013 14.8162C41.6368 14.9459 41.5401 15.0757 41.4112 15.2054C41.3468 15.2703 41.2823 15.3027 41.2179 15.3027C41.2179 15.2378 41.1534 15.2378 41.0245 15.3027C40.9601 15.3676 40.8634 15.4 40.7345 15.4C40.67 15.3351 40.5734 15.3027 40.4445 15.3027C40.3156 15.3027 40.2833 15.4 40.3478 15.5946C40.4767 15.7892 40.5089 15.9189 40.4445 15.9838C40.38 16.0486 40.3156 16.0486 40.2511 15.9838C40.1867 15.9189 40.09 15.9514 39.9611 16.0811C39.8966 16.1459 39.9288 16.2108 40.0578 16.2757C40.2511 16.2757 40.2833 16.3405 40.1544 16.4703C39.7677 16.8595 39.2843 17.2811 38.7043 17.7351C38.1886 18.1243 37.673 18.5135 37.1574 18.9027C37.093 18.9676 37.0285 18.9676 36.9641 18.9027C36.8996 18.773 36.8352 18.7405 36.7707 18.8054L36.094 19.7784C35.4495 20.427 34.8049 21.1081 34.1604 21.8216C33.5159 22.5351 32.8392 23.3459 32.1302 24.2541C31.9368 24.6432 31.7112 25 31.4534 25.3243C31.1956 25.6486 30.8412 25.7784 30.39 25.7135C30.39 25.7784 30.4544 25.8757 30.5833 26.0054C30.7122 26.0703 30.7122 26.2 30.5833 26.3946C29.4877 27.9513 28.392 29.573 27.2963 31.2595C26.2006 32.9459 25.1694 34.6973 24.2026 36.5135C23.7515 37.2919 23.2036 38.2973 22.5591 39.5297L21.689 41.2811C21.6246 41.4757 21.5279 41.573 21.399 41.573C21.3345 41.5081 21.2378 41.4757 21.1089 41.4757C21.3023 41.8649 21.3345 42.2865 21.2056 42.7405C21.2701 42.7405 21.3023 42.773 21.3023 42.8378C22.5269 43.6811 23.397 44.2649 23.9126 44.5892C24.4927 44.9135 25.4594 45.2378 26.8129 45.5622C27.3285 45.6919 27.8441 45.8541 28.3598 46.0486C28.8754 46.1784 29.4232 46.2432 30.0033 46.2432C30.0677 46.2432 30.0677 46.2757 30.0033 46.3405C30.0033 46.4054 30.0355 46.4378 30.1 46.4378C30.3578 46.4378 30.6156 46.4703 30.8734 46.5351C31.1312 46.5351 31.389 46.5351 31.6468 46.5351C31.7113 46.5351 31.7435 46.5351 31.7435 46.5351C31.8079 46.4703 31.8724 46.4378 31.9368 46.4378C32.0657 46.4378 32.2591 46.5027 32.5169 46.6324C32.9681 46.6324 33.4514 46.6324 33.9671 46.6324C34.5471 46.6324 35.0627 46.6 35.5139 46.5351C36.0295 46.4703 36.5129 46.4054 36.9641 46.3405C37.4797 46.2108 37.9631 46.1135 38.4142 46.0486C39.3166 45.9838 40.1867 45.8216 41.0245 45.5622C41.9269 45.2378 42.7969 44.9459 43.6348 44.6865C44.6016 44.3622 45.6328 44.0054 46.7285 43.6162C47.8886 43.1622 49.081 42.6432 50.3056 42.0595C50.4345 41.9946 50.4989 42.1568 50.4989 42.5459C50.5634 42.8703 50.6601 43 50.789 42.9351C50.9179 42.8703 51.079 42.6108 51.2724 42.1568C51.5302 41.7027 51.6913 41.4432 51.7557 41.3784L52.6258 40.2108L53.3993 39.3351C53.5282 39.1405 53.6571 38.8811 53.786 38.5568C53.9149 38.2324 54.0115 37.973 54.076 37.7784C54.2694 37.2595 54.4305 36.7081 54.5594 36.1243C54.6883 35.5405 54.7527 34.9243 54.7527 34.2757C54.7527 33.9514 54.9139 33.7892 55.2361 33.7892C55.5584 33.7892 55.7195 33.9514 55.7195 34.2757C55.7195 34.6 55.7195 34.9568 55.7195 35.3459C55.7195 35.7351 55.6551 36.0919 55.5262 36.4162C55.5262 36.4811 55.4617 36.5135 55.3328 36.5135C55.2684 36.4486 55.2361 36.4486 55.2361 36.5135C55.1717 36.9676 55.1072 37.4541 55.0428 37.973C54.9783 38.427 54.8172 38.8811 54.5594 39.3351L53.9793 40.3081C55.3328 39.5946 56.6218 38.8486 57.8464 38.0703C59.1355 37.227 60.2311 36.2865 61.1335 35.2486L62.0036 34.2757C62.068 34.1459 62.1647 34.0486 62.2936 33.9838C62.4225 33.9189 62.5192 34.0162 62.5836 34.2757C62.3903 34.4703 62.358 34.7297 62.487 35.0541C62.8092 34.9892 63.0026 34.6973 63.067 34.1784C63.1315 33.5946 63.2282 33.0757 63.3571 32.6216C63.9371 31.9081 64.5172 31.1297 65.0972 30.2865C65.1617 30.2216 65.2584 30.1892 65.3873 30.1892C65.6451 30.1892 65.8707 30.2216 66.064 30.2865C66.2574 30.3514 66.4507 30.2541 66.6441 29.9946C66.5152 29.6703 66.3863 29.4432 66.2574 29.3135C66.1285 29.1189 66.1607 28.8595 66.3541 28.5351L66.6441 28.0486C66.9663 27.4649 67.3208 27.0432 67.7075 26.7838C68.0943 26.5243 68.3521 25.973 68.481 25.1297C69.7056 22.9243 70.3178 20.5243 70.3178 17.9297C70.3178 14.9459 69.3833 12.1892 67.5142 9.65946C65.7095 7.06486 62.9381 5.44324 59.1999 4.79459C59.071 4.79459 58.6843 4.6973 58.0398 4.5027C57.4597 4.24324 57.1052 4.11351 56.9763 4.11351C56.8474 4.11351 56.7185 4.11351 56.5896 4.11351C56.4607 4.04865 56.3318 4.01621 56.2029 4.01621C55.9451 4.01621 55.7517 4.04865 55.6228 4.11351C55.4939 4.11351 55.2039 4.04865 54.7527 3.91892C54.1727 3.59459 53.4315 3.4 52.5292 3.33513C51.6913 3.2054 51.2079 3.10811 51.079 3.04324L49.3388 3.43243C49.0165 3.43243 48.6943 3.43243 48.372 3.43243C48.1142 3.36757 47.8564 3.33513 47.5986 3.33513C46.1162 3.33513 44.8916 3.46486 43.9249 3.72432C43.0225 3.91892 42.2169 4.04865 41.5079 4.11351L37.5441 4.5027C37.1574 4.30811 36.8029 4.37297 36.4807 4.6973H36.384C35.9328 4.6973 35.4817 4.76216 35.0305 4.89189C34.6438 4.95675 34.2249 5.05405 33.7737 5.18378C33.5159 5.24865 33.2259 5.28108 32.9036 5.28108C32.6458 5.28108 32.3558 5.34595 32.0335 5.47568V5.57297C31.7757 5.63784 31.4857 5.7027 31.1634 5.76757C30.9056 5.76757 30.6156 5.83243 30.2933 5.96216H30.1966C29.9388 6.09189 29.681 6.22162 29.4232 6.35135C29.2299 6.48108 28.9721 6.51351 28.6498 6.44865C28.392 6.51351 28.102 6.57838 27.7797 6.64324C27.5219 6.70811 27.2319 6.8054 26.9096 6.93513H26.7162C26.5229 6.93513 26.3295 6.74054 26.1362 6.35135C25.9428 5.96216 25.8461 5.7027 25.8461 5.57297C25.7817 5.96216 25.685 6.38378 25.5561 6.83784C25.4917 7.29189 25.2661 7.51892 24.8794 7.51892V7.61621C24.4282 7.68108 24.0093 7.81081 23.6226 8.0054C23.2358 8.2 22.8169 8.36216 22.3657 8.49189C22.1079 8.55676 21.8501 8.58919 21.5923 8.58919C21.3345 8.52432 21.0445 8.49189 20.7222 8.49189C20.5933 8.49189 20.4644 8.52432 20.3355 8.58919C20.2066 8.58919 20.0777 8.62162 19.9488 8.68649C19.7555 8.75135 19.6266 8.88108 19.5621 9.07568C19.5621 9.27027 19.4976 9.43243 19.3687 9.56216C19.1109 9.82162 18.7887 10.0162 18.402 10.1459C18.0153 10.2757 17.693 10.4054 17.4352 10.5351C17.3063 10.6 17.1129 10.5351 16.8551 10.3405C16.6618 10.1459 16.5006 10.1135 16.3717 10.2432C16.3073 10.3081 16.2428 10.4703 16.1784 10.7297C16.1784 10.9892 16.1139 11.1514 15.985 11.2162H15.8884L13.5681 12.2865C13.2458 12.4162 12.8591 12.6108 12.408 12.8703C11.9568 13.1297 11.5701 13.2919 11.2478 13.3568C11.1834 13.3568 11.1511 13.227 11.1511 12.9676C11.1511 12.7081 11.0867 12.6432 10.9578 12.773C10.6355 12.9027 10.281 13.2595 9.89434 13.8432C9.57208 14.3622 9.24982 14.7189 8.92756 14.9135C8.6053 15.173 8.28305 15.3027 7.96079 15.3027C7.63853 15.3027 7.3485 15.4324 7.09069 15.6919C6.89733 15.8216 6.70398 16.1135 6.51062 16.5676C6.38172 16.9568 6.22059 17.2486 6.02724 17.4432L4.67375 19.2919C4.54485 19.4216 4.41594 19.5514 4.28704 19.6811C4.15814 19.8108 4.09368 19.973 4.09368 20.1676C3.70697 20.8162 3.51362 21.5622 3.51362 22.4054C3.51362 23.8324 3.99701 24.8703 4.96378 25.5189C5.99501 26.1027 7.12291 26.5568 8.3475 26.8811H8.44418C8.89534 27.2054 9.31427 27.3351 9.70098 27.2703C9.95879 27.1405 10.1844 27.0757 10.3777 27.0757C10.6355 27.0757 10.8611 27.2054 11.0545 27.4649L12.408 27.7568C13.1169 27.9513 13.4714 28.1459 13.4714 28.3405C13.4714 28.4703 13.3103 28.6 12.988 28.7297C12.7302 28.7946 12.4402 28.827 12.1179 28.827C11.0222 28.827 9.66876 28.6 8.05746 28.1459C6.51062 27.6919 5.12491 26.9784 3.90033 26.0054C2.67574 24.9676 1.96678 23.7027 1.77342 22.2108C1.77342 22.1459 1.67674 21.9838 1.48339 21.7243C1.35448 21.4649 1.25781 21.2378 1.19336 21.0432C1.1289 20.7189 1.06445 20.427 1 20.1676C1 19.8432 1 19.5514 1 19.2919C1 17.2162 1.80565 15.3027 3.41694 13.5514C3.7392 13.227 4.02923 13 4.28704 12.8703C4.54485 12.7405 4.8671 12.5459 5.25381 12.2865C5.57607 12.027 5.7372 11.8324 5.7372 11.7027C5.7372 11.5081 5.93056 11.2811 6.31727 11.0216C6.83288 10.6324 7.50962 10.2432 8.3475 9.85405C9.18537 9.4 9.86211 9.04324 10.3777 8.78378V8.68649H10.5711C10.8289 8.68649 11.0867 8.55676 11.3445 8.2973C12.5046 7.71351 13.7292 7.19459 15.0183 6.74054C16.3717 6.22162 17.7252 5.73513 19.0787 5.28108C19.4654 5.08648 19.8199 4.98919 20.1422 4.98919C20.4644 4.98919 20.7222 5.08648 20.9156 5.28108C20.9156 5.15135 20.9156 5.05405 20.9156 4.98919C20.9156 4.85946 20.9478 4.76216 21.0123 4.6973V4.6C22.4947 4.14595 23.977 3.69189 25.4594 3.23784C26.9418 2.71892 28.392 2.45946 29.8099 2.45946H29.9066C30.2933 2.45946 30.5833 2.39459 30.7767 2.26486L31.3568 2.16757H31.4534C31.8402 2.2973 32.1946 2.23243 32.5169 1.97297C34.1282 1.64865 35.675 1.45405 37.1574 1.38919C38.6398 1.32432 39.8966 1.25946 40.9278 1.19459C41.1212 1.25946 41.3146 1.29189 41.5079 1.29189C41.7013 1.22703 41.8624 1.19459 41.9913 1.19459L42.9581 1.0973C43.1514 1.0973 43.3448 1.12973 43.5381 1.19459C43.7959 1.19459 44.0215 1.16216 44.2149 1.0973L49.6288 1H49.7255C49.9189 1 50.08 1.0973 50.2089 1.29189C50.4023 1.42162 50.5956 1.35676 50.789 1.0973C51.3046 1.0973 52.078 1.19459 53.1092 1.38919C54.2049 1.58378 55.3006 1.77838 56.3963 1.97297C57.4919 2.1027 58.2976 2.23243 58.8132 2.36216C59.78 2.55676 61.1335 3.01081 62.8737 3.72432C64.6783 4.37297 66.483 5.37838 68.2876 6.74054C70.0923 8.03784 71.5424 9.78919 72.6381 11.9946C73.7982 14.1351 74.2172 16.827 73.8949 20.0703C73.8305 21.2378 73.5727 22.3405 73.1215 23.3784C72.6703 24.4162 72.1869 25.4865 71.6713 26.5892L70.7046 28.7297C70.6401 28.7946 70.5434 28.8919 70.4145 29.0216C70.2856 29.0865 70.1567 29.1838 70.0278 29.3135C69.9634 29.5081 69.8667 29.6703 69.7378 29.8C69.6089 29.8649 69.48 29.9946 69.3511 30.1892C69.0933 30.5784 68.8032 30.9676 68.481 31.3568C68.1587 31.6811 67.8365 32.0703 67.5142 32.5243L67.3208 32.8162C66.4185 34.2432 65.2906 35.5405 63.9371 36.7081C62.5836 37.8108 61.2301 38.8162 59.8767 39.7243V39.8216C59.7478 39.8865 59.5866 39.9838 59.3933 40.1135C59.2644 40.1784 59.1355 40.2757 59.0066 40.4054L58.9099 40.5027H58.8132C58.6843 40.5676 58.5232 40.6324 58.3298 40.6973C58.1365 40.7622 57.9753 40.9243 57.8464 41.1838C57.5886 41.3784 57.3308 41.4757 57.073 41.4757C56.2351 41.9297 55.4617 42.3189 54.7527 42.6432C54.0438 42.9027 53.4315 43.1622 52.9159 43.4216C52.9159 43.5514 52.8192 43.7459 52.6258 44.0054C52.4325 44.2649 52.2714 44.4595 52.1425 44.5892C51.0468 45.4973 50.3056 46.2432 49.9189 46.827C49.5322 47.4108 49.0488 47.8649 48.4687 48.1892C48.4043 48.2541 48.3076 48.2865 48.1787 48.2865C47.9209 48.2865 47.7275 48.3838 47.5986 48.5784C47.4697 48.773 47.3408 48.9676 47.2119 49.1622C46.8896 49.4865 46.2451 49.8108 45.2783 50.1351C44.376 50.4595 43.6993 50.7838 43.2481 51.1081C43.0548 51.173 42.8292 51.2378 42.5714 51.3027C42.378 51.4324 42.2813 51.4973 42.2813 51.4973H41.7979C41.7335 51.4973 41.6046 51.5622 41.4112 51.6919C41.2179 51.8865 41.0568 52.0162 40.9278 52.0811C40.7989 52.1459 40.67 52.1784 40.5411 52.1784C40.4122 52.1784 40.3156 52.2432 40.2511 52.373C39.9288 52.373 39.5744 52.4378 39.1877 52.5676C39.1232 52.5676 38.8009 52.5676 38.2209 52.5676C37.6408 52.6324 37.2863 52.6973 37.1574 52.7622C37.093 52.827 36.8674 52.9243 36.4807 53.0541C36.094 53.1838 35.8362 53.2486 35.7073 53.2486C35.6428 53.2486 35.5784 53.2162 35.5139 53.1514C35.4495 53.1514 35.3528 53.1838 35.2239 53.2486C35.1594 53.3784 35.0627 53.4432 34.9338 53.4432C34.8694 53.4432 34.7405 53.4108 34.5471 53.3459C34.4182 53.3459 34.2893 53.3459 34.1604 53.3459C34.096 53.2811 33.9671 53.3135 33.7737 53.4432C33.6448 53.573 33.5159 53.6378 33.387 53.6378C33.3225 53.6378 33.2581 53.6054 33.1936 53.5405C33.1936 53.5405 33.1614 53.5405 33.097 53.5405C32.9681 53.5405 32.8392 53.573 32.7103 53.6378C32.5814 53.7027 32.4524 53.7351 32.3235 53.7351C31.8724 53.7351 31.4534 53.7027 31.0667 53.6378C30.68 53.573 30.2933 53.5405 29.9066 53.5405C29.8422 53.5405 29.6488 53.4432 29.3265 53.2486C29.0687 53.0541 28.9076 52.9568 28.8431 52.9568C28.392 52.9568 27.9408 52.9243 27.4897 52.8595C27.103 52.8595 26.7162 52.827 26.3295 52.7622C26.2651 52.7622 26.2006 52.6973 26.1362 52.5676C26.1362 52.5027 26.0717 52.4703 25.9428 52.4703H25.7495C25.685 52.4703 25.5239 52.4054 25.2661 52.2757C25.0727 52.1459 24.9438 52.0486 24.8794 51.9838L24.7827 51.8865C24.5249 51.8216 24.3638 51.7243 24.2993 51.5946C24.2993 51.4649 24.2349 51.4 24.1059 51.4C24.0415 51.4 24.0093 51.4 24.0093 51.4C24.0093 51.4649 23.977 51.4973 23.9126 51.4973C23.7837 51.4973 23.7192 51.4324 23.7192 51.3027C23.5259 51.173 23.2036 51.0108 22.7525 50.8162C22.3657 50.6216 22.1079 50.3946 21.979 50.1351C21.7212 50.0703 21.5601 50.0054 21.4956 49.9405C21.4956 49.8757 21.4312 49.7459 21.3023 49.5513L20.9156 49.3568L19.9488 48.4811C19.9488 48.2865 19.9166 48.1892 19.8521 48.1892L19.5621 47.9946C19.5621 47.7351 19.4654 47.6054 19.2721 47.6054C19.1432 47.2162 19.0787 47.0216 19.0787 47.0216C18.4986 48.3189 17.983 49.5838 17.5319 50.8162C17.1452 52.0486 16.7907 53.1838 16.4684 54.2216C16.3395 54.7405 16.1462 55 15.8884 55ZM32.8069 52.0811C32.9358 52.0811 33.0325 52.0486 33.097 51.9838C33.2259 51.9189 33.3225 51.8541 33.387 51.7892H33.7737C34.2249 51.5297 34.4505 51.5297 34.4505 51.7892C34.4505 52.0486 34.6116 52.0486 34.9338 51.7892H35.4172C35.4817 51.5946 35.5784 51.4973 35.7073 51.4973C35.9006 51.4973 36.0295 51.4649 36.094 51.4C36.2229 51.4 36.2873 51.3351 36.2873 51.2054C36.3518 51.1405 36.4807 51.1081 36.674 51.1081C36.7385 51.1081 36.8352 51.173 36.9641 51.3027C37.2219 51.3027 37.7375 51.173 38.5109 50.9135C39.3488 50.6541 39.7999 50.5243 39.8644 50.5243C39.9288 50.5892 40.0255 50.5243 40.1544 50.3297C40.3478 50.1351 40.4767 50.0703 40.5411 50.1351C40.5411 50.0703 40.6378 50.0054 40.8312 49.9405C41.0245 49.9405 41.1534 49.9081 41.2179 49.8432C41.6046 49.6486 41.9269 49.5513 42.1847 49.5513C42.2491 49.4865 42.4102 49.3568 42.668 49.1622C42.9903 49.0324 43.1514 48.9351 43.1514 48.8703C43.2803 48.7405 43.4737 48.6432 43.7315 48.5784C43.9893 48.5135 44.1504 48.4486 44.2149 48.3838C44.4082 48.3838 45.0528 48.0595 46.1484 47.4108C47.3086 46.6973 48.372 45.8541 49.3388 44.8811C48.2431 45.2703 47.1797 45.5946 46.1484 45.8541C45.1817 46.0486 44.666 46.1459 44.6016 46.1459C44.4727 46.2757 44.376 46.3405 44.3116 46.3405C44.0538 46.2108 43.9249 46.1459 43.9249 46.1459L43.8282 46.2432C43.7637 46.2432 43.6993 46.2757 43.6348 46.3405C43.5704 46.4054 43.4415 46.4378 43.2481 46.4378C43.1837 46.373 42.9903 46.4378 42.668 46.6324C42.4102 46.7622 42.2491 46.827 42.1847 46.827C42.1202 46.827 42.0235 46.8595 41.8946 46.9243C41.8302 46.9243 41.7335 46.8919 41.6046 46.827C41.3468 47.0865 40.67 47.2811 39.5744 47.4108C38.5431 47.4757 37.8664 47.5081 37.5441 47.5081H37.4475C37.383 47.4432 37.2863 47.4432 37.1574 47.5081C37.093 47.5081 36.9963 47.5081 36.8674 47.5081C36.8674 47.573 36.8352 47.6378 36.7707 47.7027H36.1906C35.9328 47.7027 35.675 47.7351 35.4172 47.8C35.2239 47.8649 34.9983 47.8973 34.7405 47.8973L34.6438 47.8C34.5794 47.8 34.4827 47.8324 34.3538 47.8973C34.2249 47.9622 34.1282 47.9946 34.0637 47.9946C33.9993 47.9946 33.9348 47.9622 33.8704 47.8973C33.8704 47.7676 33.8059 47.7027 33.677 47.7027C33.6126 47.7027 33.5159 47.7676 33.387 47.8973C33.3225 47.9622 33.2581 47.9622 33.1936 47.8973H32.8069C32.6136 47.8973 32.5169 47.8973 32.5169 47.8973C32.4524 47.8973 32.388 47.9297 32.3235 47.9946C32.3235 47.9946 32.2913 47.9946 32.2269 47.9946C32.2269 47.9946 32.1624 47.9297 32.0335 47.8C31.9691 47.8 31.8402 47.8649 31.6468 47.9946C31.5179 48.0595 31.389 48.0595 31.2601 47.9946H31.0667C30.9378 47.8649 30.8734 47.8 30.8734 47.8C30.8089 47.8 30.7767 47.8324 30.7767 47.8973H29.9066C29.5199 47.8973 29.1332 47.7676 28.7465 47.5081C28.3598 47.2486 28.0053 47.1189 27.683 47.1189C27.6186 47.1189 27.5541 47.1513 27.4897 47.2162C27.4897 47.2162 27.4574 47.2162 27.393 47.2162C27.3285 47.2162 27.2641 47.2162 27.1996 47.2162C27.1996 47.1513 27.1674 47.1189 27.103 47.1189C27.103 47.1189 27.0707 47.1189 27.0063 47.1189C27.0063 47.1189 26.974 47.1513 26.9096 47.2162C26.9096 47.1513 26.8774 47.1189 26.8129 47.1189C26.8129 47.0541 26.8129 47.0216 26.8129 47.0216L25.9428 46.827C25.9428 46.6324 25.8784 46.5351 25.7495 46.5351C25.685 46.3405 25.2661 46.1459 24.4927 45.9514C23.7192 45.7568 23.2681 45.627 23.1392 45.5622C23.0747 45.5622 22.9458 45.4973 22.7525 45.3676C22.6236 45.2378 22.5591 45.2054 22.5591 45.2703H22.4624C22.2691 45.2703 22.0113 45.1405 21.689 44.8811C21.4312 44.5568 21.1734 44.3622 20.9156 44.2973C20.7222 44.1027 20.6256 43.9081 20.6256 43.7135H20.5289L20.4322 43.8108L20.2388 44.3946C20.2388 44.4595 20.2711 44.5892 20.3355 44.7838C20.4 44.9784 20.4 45.1405 20.3355 45.2703C20.4644 45.4 20.5289 45.5622 20.5289 45.7568C20.5289 45.8865 20.5933 45.9838 20.7222 46.0486C20.7867 46.2432 20.8511 46.4378 20.9156 46.6324C21.0445 46.827 21.1412 47.0216 21.2056 47.2162C21.2056 47.2811 21.3667 47.4108 21.689 47.6054C22.0113 47.7351 22.1724 47.8649 22.1724 47.9946C22.2368 48.0595 22.3013 48.1243 22.3657 48.1892C22.4947 48.2541 22.5591 48.3514 22.5591 48.4811C22.6236 48.5459 22.688 48.6432 22.7525 48.773C22.8169 48.9027 22.8491 49.0324 22.8491 49.1622C22.978 49.1622 23.0747 49.1946 23.1392 49.2595C23.2036 49.3892 23.3648 49.5838 23.6226 49.8432C23.8804 50.1676 24.0737 50.3622 24.2026 50.427C24.2671 50.427 24.2993 50.3946 24.2993 50.3297C24.2993 50.3297 24.3315 50.3297 24.396 50.3297C24.5249 50.3946 24.686 50.5243 24.8794 50.7189C25.0727 50.9784 25.2016 51.1081 25.2661 51.1081C25.395 51.1081 25.4594 51.1081 25.4594 51.1081C25.975 51.173 26.4907 51.2378 27.0063 51.3027C27.5219 51.4324 28.0375 51.5297 28.5531 51.5946C28.6176 51.5946 28.7142 51.627 28.8431 51.6919C28.9721 51.8216 29.1332 51.8865 29.3265 51.8865C29.8422 51.9514 30.4544 51.9838 31.1634 51.9838C31.9368 51.9838 32.4524 51.9838 32.7103 51.9838L32.8069 52.0811Z" fill="#F2F2F2"/>
<path d="M15.8884 55C15.4372 55 15.2116 54.5135 15.2116 53.5405C15.2116 52.8919 15.3405 52.0811 15.5983 51.1081C15.9206 50.2 16.3073 49.1297 16.7584 47.8973C17.2741 47.4432 17.5319 46.8595 17.5319 46.1459C17.6608 46.2108 17.7252 46.2108 17.7252 46.1459C17.7897 46.0162 17.8219 45.9514 17.8219 45.9514C17.9508 45.7568 18.0153 45.5622 18.0153 45.3676C18.0153 45.1081 18.0475 44.8811 18.1119 44.6865V44.4919C17.8541 43.8432 17.7252 43.2919 17.7252 42.8378L17.5319 42.7405C17.403 42.3513 17.3063 41.9297 17.2418 41.4757C17.2418 41.0216 17.2741 40.6 17.3385 40.2108C17.403 39.8216 17.3707 39.627 17.2418 39.627C17.1774 39.5622 17.1452 39.4649 17.1452 39.3351C17.1452 39.2054 17.1452 39.1081 17.1452 39.0432C17.2096 38.9135 17.2741 38.7189 17.3385 38.4595C17.403 38.3297 17.4996 38.1027 17.6285 37.7784C17.8219 37.3892 17.9186 37.1622 17.9186 37.0973C17.9186 36.9676 17.8864 36.8703 17.8219 36.8054C17.7575 36.6757 17.7252 36.5784 17.7252 36.5135L18.0153 36.1243V35.4432C18.0797 35.3135 18.1119 35.1514 18.1119 34.9568C18.1764 34.827 18.2731 34.7297 18.402 34.6649C18.5309 34.5351 18.6275 34.4378 18.692 34.373C18.8209 34.2432 18.9176 34.0811 18.982 33.8865C19.1109 33.627 19.2076 33.4324 19.2721 33.3027C19.3365 33.173 19.401 33.0757 19.4654 33.0108C19.5943 32.8811 19.691 32.7189 19.7555 32.5243C19.8844 32.3297 19.981 32.1676 20.0455 32.0378C20.1099 31.8432 20.2066 31.6486 20.3355 31.4541L21.0123 30.8703C21.2701 30.6108 21.5279 30.4811 21.7857 30.4811C22.0435 30.4811 22.2046 30.7405 22.2691 31.2595L22.1724 31.7459L20.6256 33.4C20.4966 33.5297 20.4322 33.6919 20.4322 33.8865C20.3677 33.9514 20.3033 34.0162 20.2388 34.0811C20.2388 34.1459 20.2066 34.2432 20.1422 34.373C20.1422 34.5027 20.0455 34.6649 19.8521 34.8595L19.5621 35.7351C19.4332 35.7351 19.3687 35.8 19.3687 35.9297C19.3043 35.9946 19.2398 36.3838 19.1754 37.0973C19.1754 37.7459 19.1754 38.1351 19.1754 38.2649H19.4654C19.4654 38.3297 19.4654 38.427 19.4654 38.5568C19.5299 38.6216 19.5299 38.7189 19.4654 38.8486V39.4324C19.4654 39.5622 19.4332 39.6919 19.3687 39.8216C19.3687 39.8216 19.3365 39.8541 19.2721 39.9189C19.2721 39.9189 19.2721 39.9514 19.2721 40.0162C19.2721 40.0811 19.3043 40.1784 19.3687 40.3081C19.4332 40.373 19.4654 40.4703 19.4654 40.6C19.4654 40.6649 19.4332 40.7297 19.3687 40.7946C19.3687 40.7946 19.3687 40.827 19.3687 40.8919C19.3687 40.9568 19.401 41.0216 19.4654 41.0865C19.5299 41.0865 19.5621 41.1189 19.5621 41.1838V41.2811C20.0777 40.3081 20.5611 39.3027 21.0123 38.2649C21.5279 37.227 22.0435 36.1892 22.5591 35.1514C22.688 34.8919 22.8169 34.827 22.9458 34.9568C23.1392 35.0216 23.2681 34.9892 23.3325 34.8595C23.397 34.7946 23.4292 34.6324 23.4292 34.373C23.4292 34.1784 23.397 33.9838 23.3325 33.7892C23.3325 33.5946 23.4292 33.3676 23.6226 33.1081L24.976 30.6757C26.8451 27.3027 28.7142 24.0595 30.5833 20.9459C32.5169 17.8324 34.3215 15.4324 35.9973 13.7459L36.2873 13.5514L36.5774 13.0649C36.5774 13.0649 36.6418 13.0324 36.7707 12.9676C36.8996 12.9027 36.9963 12.9351 37.0607 13.0649C37.0607 13.1297 36.9963 13.2595 36.8674 13.4541C36.8029 13.6486 36.7707 13.7784 36.7707 13.8432C36.9641 14.1676 37.1896 14.2 37.4475 13.9405C37.5119 13.8108 37.5119 13.5189 37.4475 13.0649C37.383 12.6108 37.383 12.3838 37.4475 12.3838C37.5764 12.3189 37.6408 12.3189 37.6408 12.3838C37.7053 12.4486 37.7697 12.4811 37.8342 12.4811C37.9631 12.4811 38.0275 12.3838 38.0275 12.1892C38.0275 11.9946 38.0597 11.8649 38.1242 11.8C38.8332 11.5405 39.4777 11.4108 40.0578 11.4108C40.38 11.4108 40.8312 11.573 41.4112 11.8973C42.0558 12.2216 42.378 12.6757 42.378 13.2595C42.378 13.5838 42.2169 13.973 41.8946 14.427C41.8302 14.4919 41.7657 14.6216 41.7013 14.8162C41.6368 14.9459 41.5401 15.0757 41.4112 15.2054C41.3468 15.2703 41.2823 15.3027 41.2179 15.3027C41.2179 15.2378 41.1534 15.2378 41.0245 15.3027C40.9601 15.3676 40.8634 15.4 40.7345 15.4C40.67 15.3351 40.5734 15.3027 40.4445 15.3027C40.3156 15.3027 40.2833 15.4 40.3478 15.5946C40.4767 15.7892 40.5089 15.9189 40.4445 15.9838C40.38 16.0486 40.3156 16.0486 40.2511 15.9838C40.1867 15.9189 40.09 15.9514 39.9611 16.0811C39.8966 16.1459 39.9288 16.2108 40.0578 16.2757C40.2511 16.2757 40.2833 16.3405 40.1544 16.4703C39.7677 16.8595 39.2843 17.2811 38.7043 17.7351C38.1886 18.1243 37.673 18.5135 37.1574 18.9027C37.093 18.9676 37.0285 18.9676 36.9641 18.9027C36.8996 18.773 36.8352 18.7405 36.7707 18.8054L36.094 19.7784C35.4495 20.427 34.8049 21.1081 34.1604 21.8216C33.5159 22.5351 32.8392 23.3459 32.1302 24.2541C31.9368 24.6432 31.7112 25 31.4534 25.3243C31.1956 25.6486 30.8412 25.7784 30.39 25.7135C30.39 25.7784 30.4544 25.8757 30.5833 26.0054C30.7122 26.0703 30.7122 26.2 30.5833 26.3946C29.4877 27.9513 28.392 29.573 27.2963 31.2595C26.2006 32.9459 25.1694 34.6973 24.2026 36.5135C23.7515 37.2919 23.2036 38.2973 22.5591 39.5297L21.689 41.2811C21.6246 41.4757 21.5279 41.573 21.399 41.573C21.3345 41.5081 21.2378 41.4757 21.1089 41.4757C21.3023 41.8649 21.3345 42.2865 21.2056 42.7405C21.2701 42.7405 21.3023 42.773 21.3023 42.8378C22.5269 43.6811 23.397 44.2649 23.9126 44.5892C24.4927 44.9135 25.4594 45.2378 26.8129 45.5622C27.3285 45.6919 27.8441 45.8541 28.3598 46.0486C28.8754 46.1784 29.4232 46.2432 30.0033 46.2432C30.0677 46.2432 30.0677 46.2757 30.0033 46.3405C30.0033 46.4054 30.0355 46.4378 30.1 46.4378C30.3578 46.4378 30.6156 46.4703 30.8734 46.5351C31.1312 46.5351 31.389 46.5351 31.6468 46.5351C31.7113 46.5351 31.7435 46.5351 31.7435 46.5351C31.8079 46.4703 31.8724 46.4378 31.9368 46.4378C32.0657 46.4378 32.2591 46.5027 32.5169 46.6324C32.9681 46.6324 33.4514 46.6324 33.9671 46.6324C34.5471 46.6324 35.0627 46.6 35.5139 46.5351C36.0295 46.4703 36.5129 46.4054 36.9641 46.3405C37.4797 46.2108 37.9631 46.1135 38.4142 46.0486C39.3166 45.9838 40.1867 45.8216 41.0245 45.5622C41.9269 45.2378 42.7969 44.9459 43.6348 44.6865C44.6016 44.3622 45.6328 44.0054 46.7285 43.6162C47.8886 43.1622 49.081 42.6432 50.3056 42.0595C50.4345 41.9946 50.4989 42.1568 50.4989 42.5459C50.5634 42.8703 50.6601 43 50.789 42.9351C50.9179 42.8703 51.079 42.6108 51.2724 42.1568C51.5302 41.7027 51.6913 41.4432 51.7557 41.3784L52.6258 40.2108L53.3993 39.3351C53.5282 39.1405 53.6571 38.8811 53.786 38.5568C53.9149 38.2324 54.0115 37.973 54.076 37.7784C54.2694 37.2595 54.4305 36.7081 54.5594 36.1243C54.6883 35.5405 54.7527 34.9243 54.7527 34.2757C54.7527 33.9514 54.9139 33.7892 55.2361 33.7892C55.5584 33.7892 55.7195 33.9514 55.7195 34.2757C55.7195 34.6 55.7195 34.9568 55.7195 35.3459C55.7195 35.7351 55.6551 36.0919 55.5262 36.4162C55.5262 36.4811 55.4617 36.5135 55.3328 36.5135C55.2684 36.4486 55.2361 36.4486 55.2361 36.5135C55.1717 36.9676 55.1072 37.4541 55.0428 37.973C54.9783 38.427 54.8172 38.8811 54.5594 39.3351L53.9793 40.3081C55.3328 39.5946 56.6218 38.8486 57.8464 38.0703C59.1355 37.227 60.2311 36.2865 61.1335 35.2486L62.0036 34.2757C62.068 34.1459 62.1647 34.0486 62.2936 33.9838C62.4225 33.9189 62.5192 34.0162 62.5836 34.2757C62.3903 34.4703 62.358 34.7297 62.487 35.0541C62.8092 34.9892 63.0026 34.6973 63.067 34.1784C63.1315 33.5946 63.2282 33.0757 63.3571 32.6216C63.9371 31.9081 64.5172 31.1297 65.0972 30.2865C65.1617 30.2216 65.2584 30.1892 65.3873 30.1892C65.6451 30.1892 65.8707 30.2216 66.064 30.2865C66.2574 30.3514 66.4507 30.2541 66.6441 29.9946C66.5152 29.6703 66.3863 29.4432 66.2574 29.3135C66.1285 29.1189 66.1607 28.8595 66.3541 28.5351L66.6441 28.0486C66.9663 27.4649 67.3208 27.0432 67.7075 26.7838C68.0943 26.5243 68.3521 25.973 68.481 25.1297C69.7056 22.9243 70.3178 20.5243 70.3178 17.9297C70.3178 14.9459 69.3833 12.1892 67.5142 9.65946C65.7095 7.06486 62.9381 5.44324 59.1999 4.79459C59.071 4.79459 58.6843 4.6973 58.0398 4.5027C57.4597 4.24324 57.1052 4.11351 56.9763 4.11351C56.8474 4.11351 56.7185 4.11351 56.5896 4.11351C56.4607 4.04865 56.3318 4.01621 56.2029 4.01621C55.9451 4.01621 55.7517 4.04865 55.6228 4.11351C55.4939 4.11351 55.2039 4.04865 54.7527 3.91892C54.1727 3.59459 53.4315 3.4 52.5292 3.33513C51.6913 3.2054 51.2079 3.10811 51.079 3.04324L49.3388 3.43243C49.0165 3.43243 48.6943 3.43243 48.372 3.43243C48.1142 3.36757 47.8564 3.33513 47.5986 3.33513C46.1162 3.33513 44.8916 3.46486 43.9249 3.72432C43.0225 3.91892 42.2169 4.04865 41.5079 4.11351L37.5441 4.5027C37.1574 4.30811 36.8029 4.37297 36.4807 4.6973H36.384C35.9328 4.6973 35.4817 4.76216 35.0305 4.89189C34.6438 4.95675 34.2249 5.05405 33.7737 5.18378C33.5159 5.24865 33.2259 5.28108 32.9036 5.28108C32.6458 5.28108 32.3558 5.34595 32.0335 5.47568V5.57297C31.7757 5.63784 31.4857 5.7027 31.1634 5.76757C30.9056 5.76757 30.6156 5.83243 30.2933 5.96216H30.1966C29.9388 6.09189 29.681 6.22162 29.4232 6.35135C29.2299 6.48108 28.9721 6.51351 28.6498 6.44865C28.392 6.51351 28.102 6.57838 27.7797 6.64324C27.5219 6.70811 27.2319 6.8054 26.9096 6.93513H26.7162C26.5229 6.93513 26.3295 6.74054 26.1362 6.35135C25.9428 5.96216 25.8461 5.7027 25.8461 5.57297C25.7817 5.96216 25.685 6.38378 25.5561 6.83784C25.4917 7.29189 25.2661 7.51892 24.8794 7.51892V7.61621C24.4282 7.68108 24.0093 7.81081 23.6226 8.0054C23.2358 8.2 22.8169 8.36216 22.3657 8.49189C22.1079 8.55676 21.8501 8.58919 21.5923 8.58919C21.3345 8.52432 21.0445 8.49189 20.7222 8.49189C20.5933 8.49189 20.4644 8.52432 20.3355 8.58919C20.2066 8.58919 20.0777 8.62162 19.9488 8.68649C19.7555 8.75135 19.6266 8.88108 19.5621 9.07568C19.5621 9.27027 19.4976 9.43243 19.3687 9.56216C19.1109 9.82162 18.7887 10.0162 18.402 10.1459C18.0153 10.2757 17.693 10.4054 17.4352 10.5351C17.3063 10.6 17.1129 10.5351 16.8551 10.3405C16.6618 10.1459 16.5006 10.1135 16.3717 10.2432C16.3073 10.3081 16.2428 10.4703 16.1784 10.7297C16.1784 10.9892 16.1139 11.1514 15.985 11.2162H15.8884L13.5681 12.2865C13.2458 12.4162 12.8591 12.6108 12.408 12.8703C11.9568 13.1297 11.5701 13.2919 11.2478 13.3568C11.1834 13.3568 11.1511 13.227 11.1511 12.9676C11.1511 12.7081 11.0867 12.6432 10.9578 12.773C10.6355 12.9027 10.281 13.2595 9.89434 13.8432C9.57208 14.3622 9.24982 14.7189 8.92756 14.9135C8.6053 15.173 8.28305 15.3027 7.96079 15.3027C7.63853 15.3027 7.3485 15.4324 7.09069 15.6919C6.89733 15.8216 6.70398 16.1135 6.51062 16.5676C6.38172 16.9568 6.22059 17.2486 6.02724 17.4432L4.67375 19.2919C4.54485 19.4216 4.41594 19.5514 4.28704 19.6811C4.15814 19.8108 4.09368 19.973 4.09368 20.1676C3.70697 20.8162 3.51362 21.5622 3.51362 22.4054C3.51362 23.8324 3.99701 24.8703 4.96378 25.5189C5.99501 26.1027 7.12291 26.5568 8.3475 26.8811H8.44418C8.89534 27.2054 9.31427 27.3351 9.70098 27.2703C9.95879 27.1405 10.1844 27.0757 10.3777 27.0757C10.6355 27.0757 10.8611 27.2054 11.0545 27.4649L12.408 27.7568C13.1169 27.9513 13.4714 28.1459 13.4714 28.3405C13.4714 28.4703 13.3103 28.6 12.988 28.7297C12.7302 28.7946 12.4402 28.827 12.1179 28.827C11.0222 28.827 9.66876 28.6 8.05746 28.1459C6.51062 27.6919 5.12491 26.9784 3.90033 26.0054C2.67574 24.9676 1.96678 23.7027 1.77342 22.2108C1.77342 22.1459 1.67674 21.9838 1.48339 21.7243C1.35448 21.4649 1.25781 21.2378 1.19336 21.0432C1.1289 20.7189 1.06445 20.427 1 20.1676C1 19.8432 1 19.5514 1 19.2919C1 17.2162 1.80565 15.3027 3.41694 13.5514C3.7392 13.227 4.02923 13 4.28704 12.8703C4.54485 12.7405 4.8671 12.5459 5.25381 12.2865C5.57607 12.027 5.7372 11.8324 5.7372 11.7027C5.7372 11.5081 5.93056 11.2811 6.31727 11.0216C6.83288 10.6324 7.50962 10.2432 8.3475 9.85405C9.18537 9.4 9.86211 9.04324 10.3777 8.78378V8.68649H10.5711C10.8289 8.68649 11.0867 8.55676 11.3445 8.2973C12.5046 7.71351 13.7292 7.19459 15.0183 6.74054C16.3717 6.22162 17.7252 5.73513 19.0787 5.28108C19.4654 5.08648 19.8199 4.98919 20.1422 4.98919C20.4644 4.98919 20.7222 5.08648 20.9156 5.28108C20.9156 5.15135 20.9156 5.05405 20.9156 4.98919C20.9156 4.85946 20.9478 4.76216 21.0123 4.6973V4.6C22.4947 4.14595 23.977 3.69189 25.4594 3.23784C26.9418 2.71892 28.392 2.45946 29.8099 2.45946H29.9066C30.2933 2.45946 30.5833 2.39459 30.7767 2.26486L31.3568 2.16757H31.4534C31.8402 2.2973 32.1946 2.23243 32.5169 1.97297C34.1282 1.64865 35.675 1.45405 37.1574 1.38919C38.6398 1.32432 39.8966 1.25946 40.9278 1.19459C41.1212 1.25946 41.3146 1.29189 41.5079 1.29189C41.7013 1.22703 41.8624 1.19459 41.9913 1.19459L42.9581 1.0973C43.1514 1.0973 43.3448 1.12973 43.5381 1.19459C43.7959 1.19459 44.0215 1.16216 44.2149 1.0973L49.6288 1H49.7255C49.9189 1 50.08 1.0973 50.2089 1.29189C50.4023 1.42162 50.5956 1.35676 50.789 1.0973C51.3046 1.0973 52.078 1.19459 53.1092 1.38919C54.2049 1.58378 55.3006 1.77838 56.3963 1.97297C57.4919 2.1027 58.2976 2.23243 58.8132 2.36216C59.78 2.55676 61.1335 3.01081 62.8737 3.72432C64.6783 4.37297 66.483 5.37838 68.2876 6.74054C70.0923 8.03784 71.5424 9.78919 72.6381 11.9946C73.7982 14.1351 74.2172 16.827 73.8949 20.0703C73.8305 21.2378 73.5727 22.3405 73.1215 23.3784C72.6703 24.4162 72.1869 25.4865 71.6713 26.5892L70.7046 28.7297C70.6401 28.7946 70.5434 28.8919 70.4145 29.0216C70.2856 29.0865 70.1567 29.1838 70.0278 29.3135C69.9634 29.5081 69.8667 29.6703 69.7378 29.8C69.6089 29.8649 69.48 29.9946 69.3511 30.1892C69.0933 30.5784 68.8032 30.9676 68.481 31.3568C68.1587 31.6811 67.8365 32.0703 67.5142 32.5243L67.3208 32.8162C66.4185 34.2432 65.2906 35.5405 63.9371 36.7081C62.5836 37.8108 61.2301 38.8162 59.8767 39.7243V39.8216C59.7478 39.8865 59.5866 39.9838 59.3933 40.1135C59.2644 40.1784 59.1355 40.2757 59.0066 40.4054L58.9099 40.5027H58.8132C58.6843 40.5676 58.5232 40.6324 58.3298 40.6973C58.1365 40.7622 57.9753 40.9243 57.8464 41.1838C57.5886 41.3784 57.3308 41.4757 57.073 41.4757C56.2351 41.9297 55.4617 42.3189 54.7527 42.6432C54.0438 42.9027 53.4315 43.1622 52.9159 43.4216C52.9159 43.5514 52.8192 43.7459 52.6258 44.0054C52.4325 44.2649 52.2714 44.4595 52.1425 44.5892C51.0468 45.4973 50.3056 46.2432 49.9189 46.827C49.5322 47.4108 49.0488 47.8649 48.4687 48.1892C48.4043 48.2541 48.3076 48.2865 48.1787 48.2865C47.9209 48.2865 47.7275 48.3838 47.5986 48.5784C47.4697 48.773 47.3408 48.9676 47.2119 49.1622C46.8896 49.4865 46.2451 49.8108 45.2783 50.1351C44.376 50.4595 43.6993 50.7838 43.2481 51.1081C43.0548 51.173 42.8292 51.2378 42.5714 51.3027C42.378 51.4324 42.2813 51.4973 42.2813 51.4973H41.7979C41.7335 51.4973 41.6046 51.5622 41.4112 51.6919C41.2179 51.8865 41.0568 52.0162 40.9278 52.0811C40.7989 52.1459 40.67 52.1784 40.5411 52.1784C40.4122 52.1784 40.3156 52.2432 40.2511 52.373C39.9288 52.373 39.5744 52.4378 39.1877 52.5676C39.1232 52.5676 38.8009 52.5676 38.2209 52.5676C37.6408 52.6324 37.2863 52.6973 37.1574 52.7622C37.093 52.827 36.8674 52.9243 36.4807 53.0541C36.094 53.1838 35.8362 53.2486 35.7073 53.2486C35.6428 53.2486 35.5784 53.2162 35.5139 53.1514C35.4495 53.1514 35.3528 53.1838 35.2239 53.2486C35.1594 53.3784 35.0627 53.4432 34.9338 53.4432C34.8694 53.4432 34.7405 53.4108 34.5471 53.3459C34.4182 53.3459 34.2893 53.3459 34.1604 53.3459C34.096 53.2811 33.9671 53.3135 33.7737 53.4432C33.6448 53.573 33.5159 53.6378 33.387 53.6378C33.3225 53.6378 33.2581 53.6054 33.1936 53.5405C33.1936 53.5405 33.1614 53.5405 33.097 53.5405C32.9681 53.5405 32.8392 53.573 32.7103 53.6378C32.5814 53.7027 32.4524 53.7351 32.3235 53.7351C31.8724 53.7351 31.4534 53.7027 31.0667 53.6378C30.68 53.573 30.2933 53.5405 29.9066 53.5405C29.8422 53.5405 29.6488 53.4432 29.3265 53.2486C29.0687 53.0541 28.9076 52.9568 28.8431 52.9568C28.392 52.9568 27.9408 52.9243 27.4897 52.8595C27.103 52.8595 26.7162 52.827 26.3295 52.7622C26.2651 52.7622 26.2006 52.6973 26.1362 52.5676C26.1362 52.5027 26.0717 52.4703 25.9428 52.4703H25.7495C25.685 52.4703 25.5239 52.4054 25.2661 52.2757C25.0727 52.1459 24.9438 52.0486 24.8794 51.9838L24.7827 51.8865C24.5249 51.8216 24.3638 51.7243 24.2993 51.5946C24.2993 51.4649 24.2349 51.4 24.1059 51.4C24.0415 51.4 24.0093 51.4 24.0093 51.4C24.0093 51.4649 23.977 51.4973 23.9126 51.4973C23.7837 51.4973 23.7192 51.4324 23.7192 51.3027C23.5259 51.173 23.2036 51.0108 22.7525 50.8162C22.3657 50.6216 22.1079 50.3946 21.979 50.1351C21.7212 50.0703 21.5601 50.0054 21.4956 49.9405C21.4956 49.8757 21.4312 49.7459 21.3023 49.5513L20.9156 49.3568L19.9488 48.4811C19.9488 48.2865 19.9166 48.1892 19.8521 48.1892L19.5621 47.9946C19.5621 47.7351 19.4654 47.6054 19.2721 47.6054C19.1432 47.2162 19.0787 47.0216 19.0787 47.0216C18.4986 48.3189 17.983 49.5838 17.5319 50.8162C17.1452 52.0486 16.7907 53.1838 16.4684 54.2216C16.3395 54.7405 16.1462 55 15.8884 55ZM32.8069 52.0811C32.9358 52.0811 33.0325 52.0486 33.097 51.9838C33.2259 51.9189 33.3225 51.8541 33.387 51.7892H33.7737C34.2249 51.5297 34.4505 51.5297 34.4505 51.7892C34.4505 52.0486 34.6116 52.0486 34.9338 51.7892H35.4172C35.4817 51.5946 35.5784 51.4973 35.7073 51.4973C35.9006 51.4973 36.0295 51.4649 36.094 51.4C36.2229 51.4 36.2873 51.3351 36.2873 51.2054C36.3518 51.1405 36.4807 51.1081 36.674 51.1081C36.7385 51.1081 36.8352 51.173 36.9641 51.3027C37.2219 51.3027 37.7375 51.173 38.5109 50.9135C39.3488 50.6541 39.7999 50.5243 39.8644 50.5243C39.9288 50.5892 40.0255 50.5243 40.1544 50.3297C40.3478 50.1351 40.4767 50.0703 40.5411 50.1351C40.5411 50.0703 40.6378 50.0054 40.8312 49.9405C41.0245 49.9405 41.1534 49.9081 41.2179 49.8432C41.6046 49.6486 41.9269 49.5513 42.1847 49.5513C42.2491 49.4865 42.4102 49.3568 42.668 49.1622C42.9903 49.0324 43.1514 48.9351 43.1514 48.8703C43.2803 48.7405 43.4737 48.6432 43.7315 48.5784C43.9893 48.5135 44.1504 48.4486 44.2149 48.3838C44.4082 48.3838 45.0528 48.0595 46.1484 47.4108C47.3086 46.6973 48.372 45.8541 49.3388 44.8811C48.2431 45.2703 47.1797 45.5946 46.1484 45.8541C45.1817 46.0486 44.666 46.1459 44.6016 46.1459C44.4727 46.2757 44.376 46.3405 44.3116 46.3405C44.0538 46.2108 43.9249 46.1459 43.9249 46.1459L43.8282 46.2432C43.7637 46.2432 43.6993 46.2757 43.6348 46.3405C43.5704 46.4054 43.4415 46.4378 43.2481 46.4378C43.1837 46.373 42.9903 46.4378 42.668 46.6324C42.4102 46.7622 42.2491 46.827 42.1847 46.827C42.1202 46.827 42.0235 46.8595 41.8946 46.9243C41.8302 46.9243 41.7335 46.8919 41.6046 46.827C41.3468 47.0865 40.67 47.2811 39.5744 47.4108C38.5431 47.4757 37.8664 47.5081 37.5441 47.5081H37.4475C37.383 47.4432 37.2863 47.4432 37.1574 47.5081C37.093 47.5081 36.9963 47.5081 36.8674 47.5081C36.8674 47.573 36.8352 47.6378 36.7707 47.7027H36.1906C35.9328 47.7027 35.675 47.7351 35.4172 47.8C35.2239 47.8649 34.9983 47.8973 34.7405 47.8973L34.6438 47.8C34.5794 47.8 34.4827 47.8324 34.3538 47.8973C34.2249 47.9622 34.1282 47.9946 34.0637 47.9946C33.9993 47.9946 33.9348 47.9622 33.8704 47.8973C33.8704 47.7676 33.8059 47.7027 33.677 47.7027C33.6126 47.7027 33.5159 47.7676 33.387 47.8973C33.3225 47.9622 33.2581 47.9622 33.1936 47.8973H32.8069C32.6136 47.8973 32.5169 47.8973 32.5169 47.8973C32.4524 47.8973 32.388 47.9297 32.3235 47.9946C32.3235 47.9946 32.2913 47.9946 32.2269 47.9946C32.2269 47.9946 32.1624 47.9297 32.0335 47.8C31.9691 47.8 31.8402 47.8649 31.6468 47.9946C31.5179 48.0595 31.389 48.0595 31.2601 47.9946H31.0667C30.9378 47.8649 30.8734 47.8 30.8734 47.8C30.8089 47.8 30.7767 47.8324 30.7767 47.8973H29.9066C29.5199 47.8973 29.1332 47.7676 28.7465 47.5081C28.3598 47.2486 28.0053 47.1189 27.683 47.1189C27.6186 47.1189 27.5541 47.1513 27.4897 47.2162C27.4897 47.2162 27.4574 47.2162 27.393 47.2162C27.3285 47.2162 27.2641 47.2162 27.1996 47.2162C27.1996 47.1513 27.1674 47.1189 27.103 47.1189C27.103 47.1189 27.0707 47.1189 27.0063 47.1189C27.0063 47.1189 26.974 47.1513 26.9096 47.2162C26.9096 47.1513 26.8774 47.1189 26.8129 47.1189C26.8129 47.0541 26.8129 47.0216 26.8129 47.0216L25.9428 46.827C25.9428 46.6324 25.8784 46.5351 25.7495 46.5351C25.685 46.3405 25.2661 46.1459 24.4927 45.9514C23.7192 45.7568 23.2681 45.627 23.1392 45.5622C23.0747 45.5622 22.9458 45.4973 22.7525 45.3676C22.6236 45.2378 22.5591 45.2054 22.5591 45.2703H22.4624C22.2691 45.2703 22.0113 45.1405 21.689 44.8811C21.4312 44.5568 21.1734 44.3622 20.9156 44.2973C20.7222 44.1027 20.6256 43.9081 20.6256 43.7135H20.5289L20.4322 43.8108L20.2388 44.3946C20.2388 44.4595 20.2711 44.5892 20.3355 44.7838C20.4 44.9784 20.4 45.1405 20.3355 45.2703C20.4644 45.4 20.5289 45.5622 20.5289 45.7568C20.5289 45.8865 20.5933 45.9838 20.7222 46.0486C20.7867 46.2432 20.8511 46.4378 20.9156 46.6324C21.0445 46.827 21.1412 47.0216 21.2056 47.2162C21.2056 47.2811 21.3667 47.4108 21.689 47.6054C22.0113 47.7351 22.1724 47.8649 22.1724 47.9946C22.2368 48.0595 22.3013 48.1243 22.3657 48.1892C22.4947 48.2541 22.5591 48.3514 22.5591 48.4811C22.6236 48.5459 22.688 48.6432 22.7525 48.773C22.8169 48.9027 22.8491 49.0324 22.8491 49.1622C22.978 49.1622 23.0747 49.1946 23.1392 49.2595C23.2036 49.3892 23.3648 49.5838 23.6226 49.8432C23.8804 50.1676 24.0737 50.3622 24.2026 50.427C24.2671 50.427 24.2993 50.3946 24.2993 50.3297C24.2993 50.3297 24.3315 50.3297 24.396 50.3297C24.5249 50.3946 24.686 50.5243 24.8794 50.7189C25.0727 50.9784 25.2016 51.1081 25.2661 51.1081C25.395 51.1081 25.4594 51.1081 25.4594 51.1081C25.975 51.173 26.4907 51.2378 27.0063 51.3027C27.5219 51.4324 28.0375 51.5297 28.5531 51.5946C28.6176 51.5946 28.7142 51.627 28.8431 51.6919C28.9721 51.8216 29.1332 51.8865 29.3265 51.8865C29.8422 51.9514 30.4544 51.9838 31.1634 51.9838C31.9368 51.9838 32.4524 51.9838 32.7103 51.9838L32.8069 52.0811Z" stroke="#627173" stroke-width="2" mask="url(#path-1-outside-1_4_27)"/>
</svg>
